<svg id="Calque_1" data-name="Calque 1" xmlns="http://www.w3.org/2000/svg" viewBox="0 0 383.03 57.06"><defs><style>.cls-1{fill:#1e1f1d;}.cls-2{fill:#8a91c6;}</style></defs><title>Logo-rdv</title><path class="cls-1" d="M183,66.15h3.88a11.77,11.77,0,0,0,12.38-12.08c0-5.82-3.87-12.08-12.38-12.08H172.7V82.08h2.59V44.64h11.54c6.73,0,9.79,4.9,9.79,9.46a9.22,9.22,0,0,1-9.79,9.46H178.5v2.1l.17.15L196.53,82l.14.13h3.9l-1-.87Z" transform="translate(-77.84 -39.1)"/><polygon class="cls-1" points="130.81 40.63 130.81 29.8 144.26 29.8 144.76 29.8 144.76 29.3 144.76 27.91 144.76 27.41 144.26 27.41 130.81 27.41 130.81 16.61 144.57 16.61 145.07 16.61 145.07 16.11 145.07 14.76 145.07 14.26 144.57 14.26 128.92 14.26 128.42 14.26 128.42 14.76 128.42 42.48 128.42 42.98 128.92 42.98 144.65 42.98 145.15 42.98 145.15 42.48 145.15 41.13 145.15 40.63 144.65 40.63 130.81 40.63"/><polygon class="cls-1" points="169.01 14.22 168.51 14.22 168.51 14.72 168.51 38.18 152.09 14.45 151.95 14.26 151.72 14.24 150.58 14.16 150.04 14.12 150.04 14.66 150.04 42.48 150.04 42.98 150.54 42.98 151.93 42.98 152.43 42.98 152.43 42.48 152.43 19.18 168.74 42.76 168.89 42.98 169.15 42.98 170.36 42.98 170.86 42.98 170.86 42.48 170.86 14.72 170.86 14.22 170.36 14.22 169.01 14.22"/><path class="cls-1" d="M264.34,53.36h-10V82.08h10A13.64,13.64,0,0,0,275,77.57a14.91,14.91,0,0,0,3.54-9.85C278.5,60.81,274.07,53.36,264.34,53.36Zm11.81,14.36a12.5,12.5,0,0,1-3,8.28,11.34,11.34,0,0,1-8.85,3.73h-7.63v-24h7.63C272.45,55.71,276.15,61.94,276.15,67.72Z" transform="translate(-77.84 -39.1)"/><polygon class="cls-1" points="207.9 40.63 207.9 29.8 221.35 29.8 221.85 29.8 221.85 29.3 221.85 27.91 221.85 27.41 221.35 27.41 207.9 27.41 207.9 16.61 221.66 16.61 222.16 16.61 222.16 16.11 222.16 14.76 222.16 14.26 221.66 14.26 206.01 14.26 205.51 14.26 205.51 14.76 205.51 42.09 205.51 42.14 205.52 42.19 205.59 42.58 205.67 42.98 206.08 42.98 221.73 42.98 222.23 42.98 222.23 42.48 222.23 41.13 222.23 40.63 221.73 40.63 207.9 40.63"/><polygon class="cls-1" points="247.11 15.92 246.95 15.63 246.33 14.52 246.19 14.26 245.9 14.26 226.24 14.26 225.74 14.26 225.74 14.76 225.74 16.15 225.74 16.65 226.24 16.65 243.58 16.65 225.07 41.02 224.91 41.23 224.7 41.51 224.89 41.8 225.5 42.75 225.64 42.98 225.92 42.98 246.56 42.98 247.06 42.98 247.06 42.48 247.06 41.13 247.06 40.63 246.56 40.63 228.34 40.63 246.91 16.18 247.11 15.92"/><polygon class="cls-1" points="252.53 29.1 252.03 29.1 252.03 29.6 252.03 30.76 252.03 31.26 252.53 31.26 262.55 31.26 263.05 31.26 263.05 30.76 263.05 29.6 263.05 29.1 262.55 29.1 252.53 29.1"/><polygon class="cls-1" points="299.16 2.95 298.82 2.95 298.69 3.27 284.48 39.19 270.41 3.51 270.32 3.27 270.19 2.95 269.85 2.95 268.09 2.95 267.36 2.95 267.63 3.63 283.31 43.26 283.44 43.58 283.78 43.58 285.23 43.58 285.57 43.58 285.7 43.26 301.38 3.63 301.65 2.95 300.92 2.95 299.16 2.95"/><path class="cls-1" d="M395.71,52.94a14.53,14.53,0,0,0-10.35,4.35,14.75,14.75,0,0,0,0,20.82,14.52,14.52,0,0,0,20.73,0,14.75,14.75,0,0,0,0-20.82A14.44,14.44,0,0,0,395.71,52.94ZM408,67.7a12.39,12.39,0,0,1-3.56,8.71,12.1,12.1,0,0,1-17.36,0,12.34,12.34,0,0,1,0-17.42,12.12,12.12,0,0,1,17.36,0A12.39,12.39,0,0,1,408,67.7Z" transform="translate(-77.84 -39.1)"/><path class="cls-1" d="M434,53.36h-.5V73.87c0,4-4.09,6.13-7.94,6.13s-7.94-2.14-7.94-6.09V53.36h-2.39V73.87c0,5.53,5.32,8.52,10.33,8.52s10.33-3,10.33-8.48V53.36H434Z" transform="translate(-77.84 -39.1)"/><path class="cls-1" d="M460.67,72.18c-1-4.84-5.65-5.3-9.72-5.7s-7.61-.76-7.91-4.86a4.81,4.81,0,0,1,1-3.51c1.52-2,4.29-2.71,6.38-2.75h.19a8.12,8.12,0,0,1,5.89,2.19A5.11,5.11,0,0,1,457.74,60l.08.66.07.54.53-.11,1.33-.26.46-.09-.06-.47-.08-.68c-.6-3.15-3-5.44-6.54-6.29a12.11,12.11,0,0,0-2.9-.34,10.77,10.77,0,0,0-8.48,3.68,7.14,7.14,0,0,0-1.46,5.12c.42,6.07,5.72,6.6,10,7,3.76.37,7,.7,7.69,3.83a5.18,5.18,0,0,1-1,4.5A8.83,8.83,0,0,1,450.56,80c-3.48,0-7.36-1.86-7.72-5.31l-.09-.67-.07-.48-.49.06-1.38.17-.51.06.07.51.1.64c.5,4.78,5.55,7.37,10,7.37a11.31,11.31,0,0,0,8.71-3.76A7.37,7.37,0,0,0,460.67,72.18Z" transform="translate(-77.84 -39.1)"/><path class="cls-2" d="M150.47,46a6.92,6.92,0,0,0-6.91-6.91H91.28A6.92,6.92,0,0,0,84.37,46V88.86h66.1ZM106.31,79.66a52.73,52.73,0,0,1,6.83-3.42c2.18-.88,2.48-2.14,2.48-3.25V71.65l0-.46a.42.42,0,0,0-.1-.31l-.33-.31a9.29,9.29,0,0,1-.51-2.19L114.53,67a.37.37,0,0,0-.16-.27.37.37,0,0,0-.31,0l-.8.21a1.72,1.72,0,0,1-.26-.59,1.49,1.49,0,0,1,0-.63c.81-.48.75-1.43.7-2.21s-.13-2-.13-2.94a8.31,8.31,0,0,1,.07-1.25,8.11,8.11,0,0,0,2.25-.64,4.78,4.78,0,0,1,1.88-.47c1.43,0,1.59.28,1.65.37l.36.6a.38.38,0,0,0,.32.18h.71c.27,0,.49,0,.49,1.23,0,.56-.07,1.51-.12,2.35-.09,1.38-.15,2.33.69,2.79a1.44,1.44,0,0,1,0,.62,1.71,1.71,0,0,1-.27.59l-.8-.21a.35.35,0,0,0-.3,0,.41.41,0,0,0-.17.27l-.18,1.41a16.94,16.94,0,0,1-.43,2.08l-.37.37a.4.4,0,0,0-.1.26V73c0,1.56.7,2.49,2.44,3.23a62.05,62.05,0,0,1,6.83,3.4c.32.35.78,2.54,1,5.09H105.39A15.67,15.67,0,0,1,106.31,79.66Zm24.5-2.33c-1.18-1.18-7.81-4.08-7.87-4.1l-.47-.23,0-.91a8.37,8.37,0,0,0,.71-2.3A4.68,4.68,0,0,0,125,67a4.27,4.27,0,0,0-.62-3.47l0-.47c.06-1,.12-1.93.12-2.55,0-3.3-1.76-4.19-2.9-4.41a5.11,5.11,0,0,0-3.89-1.23,7.88,7.88,0,0,0-3.09.7,4.36,4.36,0,0,1-1.73.45c-1.75,0-2.64,1.5-2.64,4.47,0,1,.08,2.25.13,3.07a4.26,4.26,0,0,0-.61,3.45,4.82,4.82,0,0,0,1.82,2.78,8,8,0,0,0,.72,2.3V73h0a4.39,4.39,0,0,1-.43.21c-.87.34-6.8,3-7.9,4.11-1.33,1.32-1.76,5-1.91,7.39H90.19a1.5,1.5,0,0,1-1.44-1.54V44.78a1.5,1.5,0,0,1,1.44-1.54h54.46a1.49,1.49,0,0,1,1.44,1.54v38.4a1.49,1.49,0,0,1-1.44,1.54H132.72C132.58,82.37,132.14,78.65,130.81,77.33Z" transform="translate(-77.84 -39.1)"/><path class="cls-2" d="M156,89.94H124.58a1,1,0,0,0-1,1v.66a.45.45,0,0,1-.45.45H111.71a.45.45,0,0,1-.45-.45V91a1,1,0,0,0-1-1H78.84a1,1,0,0,0-1,1v1.74a2.83,2.83,0,0,0,2.83,2.83h73.5A2.83,2.83,0,0,0,157,92.69V91A1,1,0,0,0,156,89.94Zm-7.07,1.53a1.36,1.36,0,1,1-1.35,1.35A1.36,1.36,0,0,1,148.93,91.47Z" transform="translate(-77.84 -39.1)"/><path class="cls-2" d="M175.64,88.47a1.73,1.73,0,0,0-1.43.55v-.41h-1.13v7.55h1.13V91.42c0-1.41.35-1.93,1.29-1.93s1.26.48,1.26,1.84-.33,1.89-1.35,1.89a1.41,1.41,0,0,1-.57-.08l-.17-.07v1l.09,0a2.82,2.82,0,0,0,.74.1c1.59,0,2.43-1,2.43-3S177.16,88.47,175.64,88.47Z" transform="translate(-77.84 -39.1)"/><path class="cls-2" d="M182.05,88.47c-1.31,0-2.21.31-2.33,1.82v.13h1.12l0-.1c.12-.57.17-.85,1.16-.85s1.07.32,1.07.81V92c0,.84-.47,1.23-1.48,1.23-.67,0-.9-.16-.9-.66s.24-.68,1-.79l.91-.13v-1l-1.37.18a1.73,1.73,0,0,0-1.73,1.82c0,1,.62,1.55,1.83,1.55a2.54,2.54,0,0,0,1.72-.56v.42h1.14v-4C184.22,88.65,183.06,88.47,182.05,88.47Z" transform="translate(-77.84 -39.1)"/><path class="cls-2" d="M188.68,88.49a1.45,1.45,0,0,0-1.21.51v-.39h-1.08V94.1h1.14V91c0-1,.3-1.37,1.06-1.37a1.62,1.62,0,0,1,.44,0l.17.06V88.58l-.08,0A1.53,1.53,0,0,0,188.68,88.49Z" transform="translate(-77.84 -39.1)"/><path class="cls-2" d="M200.64,88.75c0-2-1.49-2.11-3-2.11h-3V94.1h1.21V87.74H198c1,0,1.4.15,1.4,1S199,89.91,198,89.91h-1.64V91h1.21l2.11,3,0,0h1.5L199,90.92C200.14,90.72,200.64,90.06,200.64,88.75Z" transform="translate(-77.84 -39.1)"/><polygon class="cls-2" points="126.32 48.64 130.59 48.64 130.59 47.54 125.1 47.54 125.1 55.01 130.69 55.01 130.69 53.91 126.32 53.91 126.32 48.64"/><rect class="cls-2" x="126.77" y="50.62" width="3.51" height="1.1"/><polygon class="cls-2" points="137.5 52.96 134.11 47.6 134.07 47.54 132.76 47.54 132.76 55.01 133.98 55.01 133.98 49.59 137.4 54.95 137.44 55.01 138.72 55.01 138.72 47.54 137.5 47.54 137.5 52.96"/><path class="cls-2" d="M222.23,86.72l0-.08H221l0,.08a64.67,64.67,0,0,0-2.75,7.22l-.05.16h1.28l0-.09a41.41,41.41,0,0,1,2.12-6c.43,1.07.78,2,1.08,2.83h-1.8L220.49,92H223c.21.61.41,1.27.65,2l0,.08H225l0-.16A68.79,68.79,0,0,0,222.23,86.72Z" transform="translate(-77.84 -39.1)"/><rect class="cls-2" x="149.56" y="49.11" width="1.22" height="5.89"/><rect class="cls-2" x="147.14" y="47.54" width="6.06" height="1.12"/><rect class="cls-2" x="156.64" y="50.62" width="3.51" height="1.1"/><polygon class="cls-2" points="156.18 48.64 160.46 48.64 160.46 47.54 154.97 47.54 154.97 55.01 160.56 55.01 160.56 53.91 156.18 53.91 156.18 48.64"/><path class="cls-2" d="M244.82,90.92c1.17-.2,1.68-.86,1.68-2.17,0-2-1.5-2.11-3-2.11h-3V94.1h1.22V87.74h2.12c1,0,1.4.15,1.4,1s-.35,1.15-1.42,1.15h-1.65V91h1.22l2.1,3,0,0H247Z" transform="translate(-77.84 -39.1)"/></svg>