<svg xmlns="http://www.w3.org/2000/svg" height="22" width="22" viewBox="0 0 22 22"><path d="M7.228 11.464H1.996c-.723 0-1.308.587-1.308 1.309v5.232c0 .722.585 1.308 1.308 1.308h5.232c.723 0 1.308-.586 1.308-1.308v-5.232a1.31 1.31 0 00-1.308-1.309zm0 5.887a.654.654 0 01-.654.654H2.649a.654.654 0 01-.654-.654v-3.924c0-.361.292-.654.654-.654h3.924c.361 0 .654.293.654.654v3.924zm10.464-5.887H12.46c-.723 0-1.308.587-1.308 1.309v5.232c0 .722.585 1.308 1.308 1.308h5.232c.722 0 1.308-.586 1.308-1.308v-5.232a1.31 1.31 0 00-1.308-1.309zm0 5.887a.654.654 0 01-.654.654h-3.924a.654.654 0 01-.654-.654v-3.924c0-.361.293-.654.654-.654h3.924c.361 0 .654.293.654.654v3.924zM7.228 1H1.996C1.273 1 .688 1.585.688 2.308V7.54c0 .723.585 1.308 1.308 1.308h5.232c.723 0 1.308-.585 1.308-1.308V2.308C8.536 1.585 7.95 1 7.228 1zm0 5.886a.654.654 0 01-.654.654H2.649a.654.654 0 01-.654-.654V2.962c0-.361.292-.654.654-.654h3.924c.361 0 .654.292.654.654v3.924zM17.692 1H12.46c-.723 0-1.308.585-1.308 1.308V7.54c0 .723.585 1.308 1.308 1.308h5.232c.722 0 1.308-.585 1.308-1.308V2.308C19 1.585 18.414 1 17.692 1zm0 5.886a.654.654 0 01-.654.654h-3.924a.654.654 0 01-.654-.654V2.962c0-.361.293-.654.654-.654h3.924c.361 0 .654.292.654.654v3.924z"></path></svg>